<svg width="20" height="20" xmlns="http://www.w3.org/2000/svg">

 <mask height="16" width="12" y="2" x="4" maskUnits="userSpaceOnUse" id="mask0_47_6">
  <path id="svg_1" fill="white" d="m11.6666,5.83334c0,-0.91916 -0.7475,-1.66666 -1.66665,-1.66666c-0.91917,0 -1.66667,0.7475 -1.66667,1.66666c0,0.91917 0.7475,1.66667 1.66667,1.66667c0.91915,0 1.66665,-0.7475 1.66665,-1.66667zm1.6667,-0.00001c0,1.83834 -1.495,3.33334 -3.33334,3.33334c-1.83833,0 -3.33333,-1.495 -3.33333,-3.33334c0,-1.83833 1.495,-3.33333 3.33333,-3.33333c1.83834,0 3.33334,1.495 3.33334,3.33333zm-9.16667,10.83337c0,-3.2167 2.6175,-5.8334 5.83333,-5.8334c3.21584,0 5.83334,2.6167 5.83334,5.8334c0,0.46 -0.3725,0.8333 -0.8333,0.8333c-0.4609,0 -0.8334,-0.3733 -0.8334,-0.8333c0,-2.2975 -1.8691,-4.1667 -4.16664,-4.1667c-2.2975,0 -4.16667,1.8692 -4.16667,4.1667c0,0.46 -0.3725,0.8333 -0.83333,0.8333c-0.46083,0 -0.83333,-0.3733 -0.83333,-0.8333z" clip-rule="evenodd" fill-rule="evenodd"/>
 </mask>
 <g>
  <title>background</title>
  <rect fill="none" id="canvas_background" height="402" width="582" y="-1" x="-1"/>
 </g>
 <g>
  <title>Layer 1</title>
  <path id="svg_2" fill="black" d="m11.6666,5.83334c0,-0.91916 -0.7475,-1.66666 -1.66665,-1.66666c-0.91917,0 -1.66667,0.7475 -1.66667,1.66666c0,0.91917 0.7475,1.66667 1.66667,1.66667c0.91915,0 1.66665,-0.7475 1.66665,-1.66667zm1.6667,-0.00001c0,1.83834 -1.495,3.33334 -3.33334,3.33334c-1.83833,0 -3.33333,-1.495 -3.33333,-3.33334c0,-1.83833 1.495,-3.33333 3.33333,-3.33333c1.83834,0 3.33334,1.495 3.33334,3.33333zm-9.16667,10.83337c0,-3.2167 2.6175,-5.8334 5.83333,-5.8334c3.21584,0 5.83334,2.6167 5.83334,5.8334c0,0.46 -0.3725,0.8333 -0.8333,0.8333c-0.4609,0 -0.8334,-0.3733 -0.8334,-0.8333c0,-2.2975 -1.8691,-4.1667 -4.16664,-4.1667c-2.2975,0 -4.16667,1.8692 -4.16667,4.1667c0,0.46 -0.3725,0.8333 -0.83333,0.8333c-0.46083,0 -0.83333,-0.3733 -0.83333,-0.8333z" clip-rule="evenodd" fill-rule="evenodd"/>
  <g id="svg_3" mask="url(#mask0_47_6)">
   <rect id="svg_4" fill="#2a1a00" height="20" width="20"/>
  </g>
 </g>
</svg>