<svg width="20" height="20" xmlns="http://www.w3.org/2000/svg">

 <mask height="15" width="15" y="1" x="1" maskUnits="userSpaceOnUse" id="mask0_174_7">
  <path id="svg_1" fill="white" d="m4.67508,2.83341c-1.01575,0 -1.84167,0.82592 -1.84167,1.84167c0,5.23317 4.2578,9.49162 9.49169,9.49162c1.015,0 1.8416,-0.8259 1.8416,-1.8416c0,-0.0786 -0.0049,-0.1559 -0.0148,-0.2324l-3.2725,-0.7508c-0.0652,0.1247 -0.1367,0.26 -0.2019,0.3861c-0.323,0.6162 -0.5568,1.0639 -1.15317,0.8237c-2.34175,-0.8216 -4.25354,-2.73412 -5.08583,-5.1042c-0.25288,-0.55604 0.22879,-0.80821 0.83937,-1.12696c0.12396,-0.06517 0.25784,-0.13529 0.38038,-0.19904l-0.75084,-3.27321c-0.07862,-0.00992 -0.15512,-0.01488 -0.23233,-0.01488zm7.65002,12.74999c-6.01518,0 -10.90835,-4.8932 -10.90835,-10.90832c0,-1.79704 1.46129,-3.25833 3.25833,-3.25833c0.18417,0 0.36621,0.01558 0.54258,0.04604c0.17213,0.02762 0.34496,0.07154 0.51355,0.12962c0.2302,0.08005 0.40375,0.27342 0.45829,0.51142l0.96971,4.2245c0.05383,0.23234 -0.01346,0.476 -0.17921,0.64883c-0.09633,0.10059 -0.09846,0.10271 -0.97679,0.56242c0.71116,1.53992 1.94721,2.77172 3.45596,3.45882c0.46041,-0.8791 0.46324,-0.8819 0.56383,-0.9782c0.1728,-0.16579 0.4179,-0.23024 0.6488,-0.17924l4.2252,0.96974c0.2373,0.0545 0.4307,0.2273 0.51,0.4575c0.0581,0.1672 0.102,0.34 0.1311,0.5178c0.0297,0.175 0.0453,0.3563 0.0453,0.5391c0,1.797 -1.462,3.2583 -3.2583,3.2583z" clip-rule="evenodd" fill-rule="evenodd"/>
 </mask>
 <g>
  <title>background</title>
  <rect fill="none" id="canvas_background" height="402" width="582" y="-1" x="-1"/>
 </g>
 <g>
  <title>Layer 1</title>
  <path id="svg_2" fill="black" d="m4.67508,2.83341c-1.01575,0 -1.84167,0.82592 -1.84167,1.84167c0,5.23317 4.2578,9.49162 9.49169,9.49162c1.015,0 1.8416,-0.8259 1.8416,-1.8416c0,-0.0786 -0.0049,-0.1559 -0.0148,-0.2324l-3.2725,-0.7508c-0.0652,0.1247 -0.1367,0.26 -0.2019,0.3861c-0.323,0.6162 -0.5568,1.0639 -1.15317,0.8237c-2.34175,-0.8216 -4.25354,-2.73412 -5.08583,-5.1042c-0.25288,-0.55604 0.22879,-0.80821 0.83937,-1.12696c0.12396,-0.06517 0.25784,-0.13529 0.38038,-0.19904l-0.75084,-3.27321c-0.07862,-0.00992 -0.15512,-0.01488 -0.23233,-0.01488zm7.65002,12.74999c-6.01518,0 -10.90835,-4.8932 -10.90835,-10.90832c0,-1.79704 1.46129,-3.25833 3.25833,-3.25833c0.18417,0 0.36621,0.01558 0.54258,0.04604c0.17213,0.02762 0.34496,0.07154 0.51355,0.12962c0.2302,0.08005 0.40375,0.27342 0.45829,0.51142l0.96971,4.2245c0.05383,0.23234 -0.01346,0.476 -0.17921,0.64883c-0.09633,0.10059 -0.09846,0.10271 -0.97679,0.56242c0.71116,1.53992 1.94721,2.77172 3.45596,3.45882c0.46041,-0.8791 0.46324,-0.8819 0.56383,-0.9782c0.1728,-0.16579 0.4179,-0.23024 0.6488,-0.17924l4.2252,0.96974c0.2373,0.0545 0.4307,0.2273 0.51,0.4575c0.0581,0.1672 0.102,0.34 0.1311,0.5178c0.0297,0.175 0.0453,0.3563 0.0453,0.5391c0,1.797 -1.462,3.2583 -3.2583,3.2583z" clip-rule="evenodd" fill-rule="evenodd"/>
  <g fill="#00AC4E" id="svg_3" mask="url(#mask0_174_7)">
   <rect stroke="#00AC4E" id="svg_4" fill="#2a1a00" height="17" width="17"/>
  </g>
 </g>
</svg>