<svg width="76" height="75" xmlns="http://www.w3.org/2000/svg">
 <defs>
  <clipPath id="clip0_174_85">
   <rect id="svg_1" x="0.990845" y="0.096558" fill="white" height="74.2331" width="74.2331"/>
  </clipPath>
 </defs>
 <g>
  <title>background</title>
  <rect fill="none" id="canvas_background" height="402" width="582" y="-1" x="-1"/>
 </g>
 <g>
  <title>Layer 1</title>
  <g id="svg_2" clip-path="url(#clip0_174_85)">
   <path id="svg_3" fill="#2a1a00" d="m68.0448,17.767l-1.6673,0l0,-1.6671c0,-3.9248 -3.1928,-7.11772 -7.1175,-7.11772l-51.0908,0c-3.92477,0 -7.11769,3.19302 -7.11769,7.11772l0,33.4404c0,3.9246 3.19305,7.1177 7.11769,7.1177l1.66716,0l0,1.6671c0,3.9248 3.19304,7.1177 7.11764,7.1177l51.0906,0c3.9247,0 7.1178,-3.1929 7.1178,-7.1177l0,-33.4404c-0.0002,-3.9248 -3.193,-7.1177 -7.1176,-7.1177zm1.8728,40.558c0,1.0345 -0.8386,1.8731 -1.8729,1.8731l-51.0907,0c-1.0344,0 -1.873,-0.8386 -1.873,-1.8731l0,-1.6671l0,-2.6223l0,-2.6223l0,-26.5286c0,-1.0346 0.8386,-1.8731 1.873,-1.8731l44.1789,0l2.6223,0l2.6223,0l1.6673,0c1.0344,0 1.873,0.8386 1.873,1.8731l0,33.4403l-0.0002,0zm-63.62148,-8.7848l0,-33.4403c0,-1.0345 0.8386,-1.8731 1.87308,-1.8731l51.0908,0c1.0343,0 1.8729,0.8386 1.8729,1.8731l0,1.6671l-44.1789,0c-3.9246,0 -7.11764,3.193 -7.11764,7.1177l0,26.5286l-1.66704,0c-1.0346,0 -1.8732,-0.8386 -1.8732,-1.8731z"/>
   <path id="svg_4" fill="#2a1a00" d="m68.0451,65.5046l-51.0906,0c-3.9585,0 -7.17893,-3.2205 -7.17893,-7.1789l0,-1.606l-1.60583,0c-3.95843,0 -7.17889,-3.2204 -7.17889,-7.1788l0,-33.4404c0,-3.9584 3.22046,-7.17887 7.17889,-7.17887l51.09076,0c3.9583,0 7.1788,3.22047 7.1788,7.17887l0,1.606l1.606,0c3.9583,0 7.1788,3.2204 7.1788,7.1788l0,33.4404c-0.0001,3.9584 -3.2205,7.1789 -7.179,7.1789zm-59.87536,-56.46067c-3.89098,0 -7.05647,3.16557 -7.05647,7.05657l0,33.4405c0,3.8908 3.16549,7.0564 7.05647,7.0564l1.72837,0l0,1.7284c0,3.8909 3.16549,7.0565 7.05649,7.0565l51.0905,0c3.891,0 7.0566,-3.1655 7.0566,-7.0565l0,-33.4405c0,-3.8909 -3.1654,-7.0564 -7.0564,-7.0564l-1.7285,0l0,-1.7284c0,-3.891 -3.1653,-7.05645 -7.0563,-7.05645l-51.09076,0l0,-0.00012zm59.87556,51.21607l-51.0907,0c-1.0666,0 -1.9343,-0.8678 -1.9343,-1.9343l0,-33.4404c0,-1.0665 0.8677,-1.9342 1.9343,-1.9342l51.0907,0c1.0666,0 1.9342,0.8677 1.9342,1.9342l0,33.4404c-0.0001,1.0665 -0.8677,1.9343 -1.9342,1.9343zm-51.0907,-37.1865c-0.9991,0 -1.8119,0.8129 -1.8119,1.8118l0,33.4404c0,0.9991 0.8128,1.8118 1.8119,1.8118l51.0907,0c0.999,0 1.8118,-0.8127 1.8118,-1.8118l0,-33.4404c0,-0.999 -0.8128,-1.8118 -1.8118,-1.8118l-51.0907,0zm-7.05649,28.4016l-1.72825,0c-1.06655,0 -1.9344,-0.8677 -1.9344,-1.9342l0,-33.4404c0,-1.0665 0.86773,-1.9343 1.93428,-1.9343l51.09076,0c1.0665,0 1.9342,0.8678 1.9342,1.9343l0,1.7284l-44.2401,0c-3.891,0 -7.05649,3.1655 -7.05649,7.0564l0,26.5898zm-1.72837,-37.1866c-0.99909,0 -1.81186,0.8128 -1.81186,1.8119l0,33.4405c0,0.9989 0.81289,1.8118 1.81198,1.8118l1.60595,0l0,-26.4674c0,-3.9584 3.22049,-7.1788 7.17889,-7.1788l44.1177,0l0,-1.606c0,-0.9991 -0.8128,-1.8118 -1.8118,-1.8118l-51.09086,0l0,-0.0002z"/>
   <path id="svg_5" fill="#2a1a00" d="m62.4511,52.4315l-1.7257,-1.7258l-8.3556,-8.3556c-0.7315,-0.7316 -1.9174,-0.7316 -2.6489,0l-4.748,4.7478l-8.8696,-8.8696c-0.7315,-0.7316 -1.9175,-0.7316 -2.6489,0l-13.1849,13.1848l-1.0185,1.0184c-0.4371,0.4371 -0.6128,1.0362 -0.5277,1.6039c0.0575,0.3824 0.2331,0.7507 0.5277,1.0451l1.0597,1.0596c0.2792,0.2792 0.6248,0.4515 0.986,0.5176c0.2236,0.0409 0.4532,0.0409 0.6767,0c0.3613,-0.066 0.7069,-0.2382 0.9861,-0.5176l2.1047,-2.1047l2.6223,-2.6223l5.7678,-5.7677c0.7315,-0.7316 1.9175,-0.7316 2.6488,0l5.7676,5.7677l2.6223,2.6223l2.1049,2.1047c0.2792,0.2792 0.6248,0.4515 0.9861,0.5176c0.2235,0.0409 0.4531,0.0409 0.6766,0c0.3613,-0.066 0.7068,-0.2382 0.9861,-0.5176l1.0597,-1.0596c0.2943,-0.2945 0.4701,-0.6627 0.5276,-1.0451c0.085,-0.5677 -0.0904,-1.1667 -0.5276,-1.6039l-1.0185,-1.0184l-0.6064,-0.6065l2.3636,-2.3639l2.9705,2.9704l2.6223,2.6223l2.1046,2.1047c0.2639,0.2638 0.5873,0.432 0.9267,0.5055c0.4451,0.0963 0.918,0.0292 1.3236,-0.2015c0.1427,-0.0813 0.2771,-0.1822 0.3988,-0.3039l1.0595,-1.0596c0.6869,-0.6867 0.7288,-1.7742 0.1259,-2.51c-0.0394,-0.0479 -0.0812,-0.0943 -0.1259,-0.1391z"/>
   <path id="svg_6" fill="#2a1a00" d="m47.9229,56.7503c-0.1169,0 -0.2344,-0.0108 -0.3494,-0.0317c-0.3873,-0.0708 -0.7394,-0.2556 -1.0183,-0.5345l-10.4948,-10.4948c-0.3422,-0.3423 -0.7972,-0.5307 -1.2812,-0.5307c-0.4839,0 -0.939,0.1884 -1.2811,0.5307l-10.4948,10.4948c-0.2787,0.2789 -0.6309,0.4637 -1.0183,0.5345c-0.2298,0.0419 -0.4689,0.0419 -0.6988,0c-0.3873,-0.0708 -0.7394,-0.2556 -1.0183,-0.5345l-1.0597,-1.0596c-0.2947,-0.2945 -0.4831,-0.6678 -0.5449,-1.0793c-0.0907,-0.605 0.113,-1.2242 0.5449,-1.6561l14.2034,-14.2033c0.3653,-0.3653 0.8511,-0.5665 1.3677,-0.5665c0.5167,0 1.0024,0.2012 1.3678,0.5665l8.8264,8.8265l4.7047,-4.7046c0.3654,-0.3653 0.851,-0.5666 1.3678,-0.5666c0.5167,0 1.0024,0.2013 1.3677,0.5666l10.0813,10.0814c0.0445,0.0446 0.0884,0.0928 0.13,0.1432c0.6323,0.7718 0.5764,1.8861 -0.13,2.5924l-1.0595,1.0595c-0.1222,0.1222 -0.2607,0.2277 -0.4118,0.3138c-0.2898,0.165 -0.6201,0.2522 -0.9554,0.2522c-0.0001,0 -0.0001,0 -0.0001,0c-0.1381,0 -0.2765,-0.0147 -0.4111,-0.044c-0.3631,-0.0784 -0.694,-0.2589 -0.9571,-0.522l-7.654,-7.654l-2.2771,2.2773l1.5817,1.5817c0.4318,0.4318 0.6354,1.051 0.5447,1.6562c-0.0617,0.4112 -0.25,0.7843 -0.5447,1.0793l-1.0597,1.0595c-0.2789,0.2789 -0.631,0.4638 -1.0183,0.5345c-0.1152,0.0208 -0.2327,0.0316 -0.3497,0.0316zm-13.1436,-11.7142c0.5167,0 1.0024,0.2013 1.3678,0.5666l10.4948,10.4948c0.2613,0.2613 0.5911,0.4344 0.9538,0.5006c0.2152,0.0395 0.4395,0.0395 0.6547,0c0.3628,-0.0662 0.6926,-0.2393 0.9538,-0.5006l1.0597,-1.0595c0.276,-0.2762 0.4524,-0.6257 0.5103,-1.011c0.0849,-0.5669 -0.1058,-1.1469 -0.5103,-1.5515l-1.6682,-1.6682l2.4501,-2.4504l7.7407,7.7406c0.2466,0.2465 0.5564,0.4156 0.8964,0.489c0.4331,0.0935 0.8971,0.023 1.2803,-0.195c0.1415,-0.0806 0.2714,-0.1796 0.3858,-0.294l1.0594,-1.0595c0.6616,-0.6615 0.714,-1.7054 0.122,-2.428c-0.0391,-0.0473 -0.0801,-0.0926 -0.122,-0.1345l-10.0813,-10.0814c-0.3422,-0.3423 -0.7972,-0.5307 -1.2811,-0.5307c-0.484,0 -0.939,0.1884 -1.2812,0.5307l-4.7913,4.7912l-8.913,-8.913c-0.3422,-0.3423 -0.7972,-0.5307 -1.2812,-0.5307c-0.4839,0 -0.9388,0.1884 -1.2811,0.5307l-14.2033,14.2032c-0.4046,0.4046 -0.5954,0.9847 -0.5103,1.5515c0.0578,0.3854 0.2343,0.735 0.5103,1.011l1.0597,1.0595c0.2612,0.2613 0.591,0.4344 0.9538,0.5006c0.2154,0.0395 0.4395,0.0395 0.6548,0c0.3628,-0.0662 0.6927,-0.2393 0.9538,-0.5006l10.4947,-10.4948c0.3652,-0.3653 0.851,-0.5666 1.3676,-0.5666z"/>
   <path id="svg_7" fill="#2a1a00" d="m61.1328,26.2902c-0.8168,-0.3209 -1.7058,-0.4974 -2.6349,-0.4974c-3.985,0 -7.227,3.2421 -7.227,7.2269c0,3.985 3.242,7.2269 7.227,7.2269c0.9292,0 1.8182,-0.1764 2.6349,-0.4974c1.0024,-0.394 1.8959,-1.0056 2.6223,-1.7764c1.2204,-1.2945 1.9696,-3.0378 1.9696,-4.9531c0,-1.9152 -0.7492,-3.6586 -1.9696,-4.9531c-0.7264,-0.7708 -1.62,-1.3825 -2.6223,-1.7764zm-2.6353,8.7118c-1.0946,0 -1.9821,-0.8876 -1.9821,-1.9823c0,-1.0947 0.8875,-1.9821 1.9821,-1.9821c1.0949,0 1.9824,0.8875 1.9824,1.9821c0.0001,1.0947 -0.8874,1.9823 -1.9824,1.9823z"/>
   <path id="svg_8" fill="#2a1a00" d="m58.4984,40.3083c-4.0188,0 -7.2882,-3.2694 -7.2882,-7.288c0,-4.0187 3.2694,-7.2881 7.2882,-7.2881c0.916,0 1.8102,0.1688 2.6573,0.5017c0.9934,0.3903 1.9079,1.0097 2.6446,1.7913c1.2808,1.3586 1.9862,3.1325 1.9862,4.9951c0,1.8625 -0.7054,3.6364 -1.9862,4.9951c-0.7365,0.7814 -1.6508,1.4007 -2.6446,1.7914c-0.847,0.3327 -1.7409,0.5015 -2.6573,0.5015zm0,-14.4537c-3.9512,0 -7.1658,3.2145 -7.1658,7.1657c0,3.9512 3.2146,7.1656 7.1658,7.1656c0.9008,0 1.7798,-0.1659 2.6127,-0.4932c0.9768,-0.3839 1.8759,-0.9929 2.6,-1.7613c1.2594,-1.3359 1.9529,-3.0799 1.9529,-4.9111c0,-1.8312 -0.6935,-3.5754 -1.9529,-4.9112c-0.7243,-0.7684 -1.6235,-1.3775 -2.6,-1.7613c-0.833,-0.3272 -1.7119,-0.4932 -2.6127,-0.4932zm-0.0002,9.2093c-1.1268,0 -2.0434,-0.9167 -2.0434,-2.0435c0,-1.1268 0.9166,-2.0434 2.0434,-2.0434c1.1269,0 2.0436,0.9167 2.0436,2.0434c0.0001,1.1268 -0.9167,2.0435 -2.0436,2.0435zm0,-3.9646c-1.0592,0 -1.921,0.8618 -1.921,1.921c0,1.0593 0.8618,1.921 1.921,1.921c1.0593,0 1.9212,-0.8618 1.9212,-1.921c0.0001,-1.0592 -0.8618,-1.921 -1.9212,-1.921z"/>
  </g>
 </g>
</svg>